<svg xmlns="http://www.w3.org/2000/svg" xmlns:xlink="http://www.w3.org/1999/xlink" viewBox="0 0 144.726 180.95">
  <defs>
    <clipPath id="clip-path">
      <path id="path158" class="logo-1" d="M244.929-503.063v3.513h16.565v173.925H244.929v3.512h63v-3.512H292.111v-53.709a71.544,71.544,0,0,1,2.511-20.079h0a47.272,47.272,0,0,1,6.651-14.3h0a27.781,27.781,0,0,1,9.663-8.659h0a24.61,24.61,0,0,1,11.545-2.887h0q7.274,0,11.544,4.895h0q4.266,4.892,4.267,15.433h0v79.309H322.733v3.512h62.993v-3.512H368.91V-396.4q0-16.564-9.16-26.1h0q-9.164-9.536-25.725-9.539h0q-11.292,0-18.7,3.264h0a43.963,43.963,0,0,0-12.172,7.655h0A34.747,34.747,0,0,0,296-412.336h0q-2.388,4.394-3.389,6.651h-.5v-97.377Z"/>
    </clipPath>
  </defs>
  <g id="Group_340" data-name="Group 340" transform="translate(-2026 -6318.642)">
    <g id="g154" transform="translate(1785 6821.705)">
      <g id="g156" class="logo-2">
        <g id="g162">
          <g id="g164">
            <path id="path174" class="logo-1" d="M244.929-503.063v3.513h16.565v173.925H244.929v3.512h63v-3.512H292.111v-53.709a71.544,71.544,0,0,1,2.511-20.079h0a47.272,47.272,0,0,1,6.651-14.3h0a27.781,27.781,0,0,1,9.663-8.659h0a24.61,24.61,0,0,1,11.545-2.887h0q7.274,0,11.544,4.895h0q4.266,4.892,4.267,15.433h0v79.309H322.733v3.512h62.993v-3.512H368.91V-396.4q0-16.564-9.16-26.1h0q-9.164-9.536-25.725-9.539h0q-11.292,0-18.7,3.264h0a43.963,43.963,0,0,0-12.172,7.655h0A34.747,34.747,0,0,0,296-412.336h0q-2.388,4.394-3.389,6.651h-.5v-97.377Z"/>
          </g>
        </g>
      </g>
    </g>
    <g id="Group_339" data-name="Group 339">
      <circle id="Ellipse_1" data-name="Ellipse 1" class="logo-1" cx="4" cy="4" r="4" transform="translate(2026 6463)"/>
      <circle id="Ellipse_2" data-name="Ellipse 2" class="logo-1" cx="4" cy="4" r="4" transform="translate(2026 6476)"/>
    </g>
  </g>
</svg>
