<svg xmlns="http://www.w3.org/2000/svg" xmlns:xlink="http://www.w3.org/1999/xlink" width="640.007" height="255.409" viewBox="0 0 640.007 255.409">
    <defs>
        <linearGradient id="linear-gradient" x2="1" y1="0.5" y2="0.5" gradientUnits="objectBoundingBox">
            <stop offset="0"/>
            <stop offset="1"/>
        </linearGradient>
    </defs>
    <g id="objectsExport" transform="translate(-104.677 -126.643)">
        <g id="group">
            <path id="curve" fill-rule="evenodd" d="M295.34,200.441A64.566,64.566,0,0,0,276.4,213.5a60.257,60.257,0,0,0-12.67,18.558,52.992,52.992,0,0,0-4.608,21.5,59.867,59.867,0,0,0,4.865,24.7,52.968,52.968,0,0,0,13.435,18.431,59.235,59.235,0,0,0,20.1,11.516,75.722,75.722,0,0,0,24.826,3.967q11.265,0,19.2-3.2a45.834,45.834,0,0,0,13.31-7.933A39.174,39.174,0,0,0,363.3,290.8a45.017,45.017,0,0,0,4.349-10.367l-3.583-1.279a27.842,27.842,0,0,1-2.429,7.167,38.686,38.686,0,0,1-6.656,9.853A42.793,42.793,0,0,1,343.462,305q-7.044,3.842-17.278,3.84-11.52,0-17.918-4.864a30.936,30.936,0,0,1-9.726-12.413,52.107,52.107,0,0,1-4.1-16.895q-.771-9.34-.77-18.557V244.6h75.511q0-13.054-4.605-22.4A45.3,45.3,0,0,0,352.8,206.969a47.731,47.731,0,0,0-16.129-8.7,59.522,59.522,0,0,0-17.915-2.816A55.468,55.468,0,0,0,295.34,200.441Zm-.767,26.62a52.184,52.184,0,0,1,2.943-13.564,24.665,24.665,0,0,1,7.038-10.368q4.737-4.089,13.439-4.094,6.143,0,9.6,2.816a16.072,16.072,0,0,1,4.99,6.91,28.274,28.274,0,0,1,1.792,8.191c.168,2.733.258,5.036.258,6.911v17.149H293.674Q293.929,234.362,294.573,227.061Z"/>
            <path id="curve-2" fill-rule="evenodd" d="M572.038,203.769a52.656,52.656,0,0,0-12.414,16.766h-.512v-21.5H511.757v3.582h16.637V305.263H511.757v3.581h68.088v-3.581H559.624V239.732a41.913,41.913,0,0,1,2.43-14.717,46.811,46.811,0,0,1,5.76-11.134,26.531,26.531,0,0,1,7.167-7.04q3.838-2.43,6.4-2.432a5.563,5.563,0,0,1,3.454.9,5.381,5.381,0,0,1,1.666,2.045,11.887,11.887,0,0,1,.766,3.2c0,.172-.088.855-.254,2.047s-.383,2.521-.64,3.967-.474,2.817-.642,4.1a23.99,23.99,0,0,0-.256,2.687q0,6.662,4.864,9.089a23.7,23.7,0,0,0,10.751,2.431q8.191,0,11.9-4.351t3.712-12.032q0-10.236-6.656-16t-17.407-5.762Q579.841,196.729,572.038,203.769Z" data-name="curve"/>
            <path id="curve-3" fill-rule="evenodd" d="M661.11,197.243a52,52,0,0,0-13.952,5.248,29.632,29.632,0,0,0-9.854,8.7,20.123,20.123,0,0,0-3.711,11.9A14.38,14.38,0,0,0,635,230.005a11.221,11.221,0,0,0,3.457,3.968,10.894,10.894,0,0,0,4.734,1.791,37.1,37.1,0,0,0,5.248.387c1.19,0,2.686-.042,4.478-.131a14.845,14.845,0,0,0,5.12-1.149,10.91,10.91,0,0,0,4.224-3.2,9.2,9.2,0,0,0,1.792-6.016,27.763,27.763,0,0,0-.257-2.816q-.257-2.046-.511-4.352t-.513-4.223a23.738,23.738,0,0,1-.255-2.688q0-7.164,4.351-9.857a19.087,19.087,0,0,1,10.24-2.685q9.215,0,12.541,5.63a24.219,24.219,0,0,1,3.328,12.543v15.613a19.17,19.17,0,0,1-1.408,7.936,13.713,13.713,0,0,1-4.992,5.5,41.916,41.916,0,0,1-10.11,4.607q-6.527,2.178-17.022,5.248-6.4,2.052-12.414,4.224a42.873,42.873,0,0,0-10.752,5.63,27.8,27.8,0,0,0-7.676,8.448,24.077,24.077,0,0,0-2.944,12.415,21.434,21.434,0,0,0,3.325,12.159,23.23,23.23,0,0,0,8.705,7.8,43.612,43.612,0,0,0,11.772,4.1,63.72,63.72,0,0,0,12.544,1.279q13.565,0,20.732-3.582T694,294.765h.51a19.729,19.729,0,0,0,7.807,12.8q6.266,4.605,19.325,4.606a85.573,85.573,0,0,0,12.671-1.023,14.468,14.468,0,0,0,10.367-6.4l-2.3-2.3a17.9,17.9,0,0,1-4.226,3.581,10.677,10.677,0,0,1-5.5,1.281q-5.634,0-7.039-3.712a24.1,24.1,0,0,1-1.409-8.574v-63.48q0-10.75-3.712-17.79a29.378,29.378,0,0,0-9.981-11.136,39.7,39.7,0,0,0-14.848-5.63,103.574,103.574,0,0,0-18.3-1.536A72.593,72.593,0,0,0,661.11,197.243Zm4.735,106.61a16.954,16.954,0,0,1-4.992-6.528,25.91,25.91,0,0,1-2.047-7.934q-.386-4.09-.384-7.166,0-7.68,2.431-12.544a26.2,26.2,0,0,1,6.273-8.19,35.069,35.069,0,0,1,8.7-5.5q4.86-2.174,9.728-4.48a20.1,20.1,0,0,0,4.992-3.2,7.658,7.658,0,0,0,1.918-2.943h.512v33.789a45.51,45.51,0,0,1-1.536,12.67,24.4,24.4,0,0,1-4.094,8.446A16.648,16.648,0,0,1,681.589,305a14.959,14.959,0,0,1-6.529,1.537Q669.171,306.541,665.845,303.853Z" data-name="curve"/>
            <path id="curve-4" fill-rule="evenodd" d="M376.354,199.035v3.582H389.92L438.041,317.8c-12.2,30.46-13.611,33.872-15.229,37.629a74.713,74.713,0,0,1-5.631,10.62,36.38,36.38,0,0,1-7.167,8.32,13.112,13.112,0,0,1-8.576,3.327,5.139,5.139,0,0,1-3.582-1.407,5.45,5.45,0,0,1-1.538-4.224,12.839,12.839,0,0,1,1.664-6.656,14.476,14.476,0,0,0,1.664-7.421,8.856,8.856,0,0,0-4.352-8.063,17.255,17.255,0,0,0-9.214-2.687,19.312,19.312,0,0,0-11.391,3.326q-4.734,3.326-4.733,10.749,0,9.726,7.293,15.233t18.813,5.5q10.75,0,17.151-5.375t11.517-16.894q5.121-11.01,10.88-25.47t13.31-33.4q3.6-9.035,7.822-19.307l-3.482-8.376-29.807-70.611h17.916v-3.582Z" data-name="curve"/>
            <path id="curve-5" fill-rule="evenodd" d="M465.944,199.035v3.582h37.114v-3.582" data-name="curve"/>
            <path id="curve-6" d="M440.955,351.646a3.673,3.673,0,1,1,3.406-3.922A3.669,3.669,0,0,1,440.955,351.646Z" data-name="curve"/>
            <path id="curve-7" d="M434.515,364.725a3.673,3.673,0,1,1,3.4-3.92A3.672,3.672,0,0,1,434.515,364.725Z" data-name="curve"/>
            <path id="curve-8" d="M738.43,228.686a3.673,3.673,0,1,1-3.672-3.675A3.672,3.672,0,0,1,738.43,228.686Z" data-name="curve"/>
            <path id="curve-9" d="M738.43,242.22a3.673,3.673,0,1,1-3.672-3.675A3.671,3.671,0,0,1,738.43,242.22Z" data-name="curve"/>
            <path id="curve-10" d="M112.024,274.536a3.674,3.674,0,1,1-3.672-3.675A3.672,3.672,0,0,1,112.024,274.536Z" data-name="curve"/>
            <path id="curve-11" d="M112.024,288.07a3.674,3.674,0,1,1-3.672-3.675A3.672,3.672,0,0,1,112.024,288.07Z" data-name="curve"/>
            <path id="curve-12" fill-rule="evenodd" d="M108.35,126.643v3.513h16.566V304.081H108.35v3.512h63v-3.512H155.533c0-61.4.837-68.1,2.511-73.788a47.263,47.263,0,0,1,6.65-14.3,27.776,27.776,0,0,1,9.663-8.658,24.606,24.606,0,0,1,11.545-2.887q7.275,0,11.544,4.9t4.267,15.433v79.309H186.154v3.512h62.994v-3.512H232.332V233.3q0-16.563-9.16-26.1t-25.726-9.538q-11.292,0-18.7,3.264a43.984,43.984,0,0,0-12.172,7.654,34.759,34.759,0,0,0-7.152,8.784q-2.388,4.395-3.389,6.651h-.5V126.643Z" data-name="curve"/>
        </g>
    </g>
</svg>
